<svg width="845" height="154" viewBox="0 0 845 154" fill="none" xmlns="http://www.w3.org/2000/svg">
<path d="M484.126 87.848C479.817 88.0613 476.233 88.4453 473.374 89C470.515 89.512 468.233 90.1946 466.526 91.048C464.862 91.9013 463.667 92.8826 462.942 93.992C462.259 95.0586 461.918 96.232 461.918 97.512C461.918 100.072 462.622 101.885 464.03 102.952C465.481 104.019 467.486 104.552 470.046 104.552C472.99 104.552 475.529 104.04 477.662 103.016C479.838 101.949 481.993 100.307 484.126 98.088V87.848ZM448.158 58.6C452.041 55.1013 456.329 52.4986 461.022 50.792C465.715 49.0426 470.793 48.168 476.254 48.168C480.179 48.168 483.678 48.808 486.75 50.088C489.865 51.368 492.489 53.16 494.622 55.464C496.798 57.7253 498.462 60.4346 499.614 63.592C500.766 66.7493 501.342 70.2053 501.342 73.96V115.432H493.278C491.614 115.432 490.334 115.197 489.438 114.728C488.585 114.259 487.881 113.277 487.326 111.784L485.918 107.56C484.254 109.011 482.633 110.291 481.054 111.4C479.518 112.509 477.918 113.448 476.254 114.216C474.59 114.941 472.798 115.496 470.878 115.88C469.001 116.264 466.889 116.456 464.542 116.456C461.641 116.456 458.995 116.072 456.606 115.304C454.217 114.536 452.147 113.405 450.398 111.912C448.691 110.376 447.369 108.477 446.43 106.216C445.491 103.955 445.022 101.352 445.022 98.408C445.022 95.976 445.641 93.544 446.878 91.112C448.115 88.68 450.227 86.4826 453.214 84.52C456.243 82.5146 460.254 80.872 465.246 79.592C470.281 78.2693 476.574 77.5226 484.126 77.352V73.96C484.126 69.8213 483.251 66.792 481.502 64.872C479.753 62.9093 477.235 61.928 473.95 61.928C471.518 61.928 469.491 62.2266 467.87 62.824C466.249 63.3786 464.819 63.9973 463.582 64.68C462.387 65.32 461.257 65.9386 460.19 66.536C459.123 67.0906 457.886 67.368 456.478 67.368C455.241 67.368 454.195 67.0693 453.342 66.472C452.531 65.832 451.849 65.0853 451.294 64.232L448.158 58.6Z" fill="black"/>
<path d="M435.076 49.3839V115.432H419.14V81.1279C419.14 79.5919 419.225 77.8426 419.396 75.8799C419.567 73.9172 419.801 72.0612 420.1 70.3119L402.18 104.04C401.113 106.045 399.471 107.048 397.252 107.048H395.332C393.156 107.048 391.492 106.045 390.34 104.04L372.228 70.1839C372.569 71.9332 372.825 73.8106 372.996 75.8159C373.209 77.7786 373.316 79.5492 373.316 81.1279V115.432H357.38V49.3839H372.1C373.295 49.3839 374.489 49.6399 375.684 50.1519C376.879 50.6639 377.903 51.6879 378.756 53.2239L392.324 78.6319C393.049 79.9972 393.732 81.4692 394.372 83.0479C395.055 84.5839 395.695 86.1626 396.292 87.7839C396.847 86.1626 397.444 84.5839 398.084 83.0479C398.767 81.4692 399.471 79.9972 400.196 78.6319L413.7 53.2239C414.553 51.6026 415.577 50.5572 416.772 50.0879C417.967 49.6186 419.161 49.3839 420.356 49.3839H435.076Z" fill="black"/>
<path d="M330.611 74.6639C330.611 72.8293 330.355 71.0799 329.843 69.4159C329.374 67.7519 328.606 66.2799 327.539 64.9999C326.472 63.7199 325.128 62.7173 323.507 61.992C321.886 61.224 319.944 60.84 317.683 60.84C313.459 60.84 310.152 62.0346 307.763 64.424C305.374 66.8133 303.816 70.2266 303.091 74.6639H330.611ZM302.835 85.16C303.39 91.3466 305.139 95.8693 308.083 98.728C311.07 101.587 314.952 103.016 319.731 103.016C322.163 103.016 324.254 102.739 326.003 102.184C327.795 101.587 329.352 100.947 330.675 100.264C332.04 99.5386 333.256 98.8986 334.323 98.344C335.432 97.7466 336.52 97.448 337.587 97.448C338.952 97.448 340.019 97.96 340.787 98.984L345.907 105.384C344.03 107.56 341.96 109.373 339.699 110.824C337.438 112.232 335.091 113.363 332.659 114.216C330.227 115.027 327.774 115.581 325.299 115.88C322.824 116.221 320.435 116.392 318.131 116.392C313.523 116.392 309.214 115.645 305.203 114.152C301.235 112.616 297.758 110.376 294.771 107.432C291.827 104.445 289.502 100.755 287.795 96.36C286.088 91.9653 285.235 86.8666 285.235 81.064C285.235 76.584 285.96 72.36 287.411 68.392C288.904 64.424 291.038 60.9679 293.811 58.0239C296.584 55.0799 299.955 52.7546 303.923 51.048C307.891 49.2986 312.371 48.424 317.363 48.424C321.587 48.424 325.47 49.1066 329.011 50.4719C332.595 51.7946 335.667 53.736 338.227 56.296C340.83 58.856 342.835 62.0133 344.243 65.768C345.694 69.48 346.419 73.7253 346.419 78.504C346.419 79.8266 346.355 80.9146 346.227 81.768C346.099 82.6213 345.886 83.304 345.587 83.816C345.288 84.328 344.883 84.6906 344.371 84.904C343.859 85.0746 343.198 85.16 342.387 85.16H302.835Z" fill="black"/>
<path d="M281.599 62.312H258.815V115.432H241.151V62.312H218.367V49.448H281.599V62.312Z" fill="black"/>
<path d="M210.127 64.1679C209.615 64.8506 209.103 65.384 208.591 65.768C208.079 66.1093 207.354 66.28 206.415 66.28C205.562 66.28 204.73 66.0453 203.919 65.576C203.151 65.064 202.255 64.5306 201.231 63.976C200.207 63.3786 198.991 62.8453 197.583 62.376C196.175 61.864 194.426 61.6079 192.335 61.6079C189.69 61.6079 187.386 62.0986 185.423 63.0799C183.503 64.0186 181.903 65.384 180.623 67.176C179.343 68.968 178.383 71.144 177.743 73.704C177.146 76.264 176.847 79.144 176.847 82.344C176.847 89.0853 178.191 94.248 180.879 97.832C183.61 101.416 187.322 103.208 192.015 103.208C193.636 103.208 195.023 103.08 196.175 102.824C197.37 102.525 198.394 102.163 199.247 101.736C200.143 101.309 200.911 100.84 201.551 100.328C202.191 99.8159 202.788 99.3466 203.343 98.92C203.94 98.4933 204.516 98.152 205.071 97.896C205.668 97.5973 206.33 97.448 207.055 97.448C208.42 97.448 209.487 97.96 210.255 98.984L215.311 105.384C213.434 107.56 211.428 109.373 209.295 110.824C207.162 112.232 204.943 113.363 202.639 114.216C200.378 115.027 198.074 115.581 195.727 115.88C193.38 116.221 191.055 116.392 188.751 116.392C184.698 116.392 180.858 115.645 177.231 114.152C173.604 112.616 170.426 110.397 167.695 107.496C164.964 104.595 162.788 101.032 161.167 96.808C159.588 92.584 158.799 87.7626 158.799 82.344C158.799 77.5226 159.503 73.0426 160.911 68.904C162.319 64.7653 164.388 61.1813 167.119 58.152C169.85 55.1226 173.22 52.7546 177.231 51.048C181.284 49.2986 185.956 48.424 191.247 48.424C196.282 48.424 200.698 49.2346 204.495 50.8559C208.292 52.4773 211.706 54.8239 214.735 57.896L210.127 64.1679Z" fill="black"/>
<path d="M147.546 49.448V115.432H129.882V79.144C129.882 78.1627 129.925 77.0533 130.01 75.816C130.138 74.536 130.309 73.2773 130.522 72.04C129.541 74.1733 128.538 75.9867 127.514 77.48C127.429 77.5653 127.045 78.12 126.362 79.144C125.679 80.168 124.783 81.4907 123.674 83.112C122.565 84.6907 121.306 86.4827 119.898 88.488C118.533 90.4933 117.125 92.5413 115.674 94.632C112.303 99.496 108.485 105.021 104.218 111.208C103.877 111.72 103.471 112.232 103.002 112.744C102.575 113.213 102.085 113.661 101.53 114.088C101.018 114.515 100.463 114.856 99.866 115.112C99.2687 115.368 98.6287 115.496 97.946 115.496H87.13V49.512H104.794V85.8C104.794 86.824 104.73 87.976 104.602 89.256C104.474 90.536 104.303 91.7947 104.09 93.032C104.602 91.9227 105.114 90.8987 105.626 89.96C106.138 89.0213 106.65 88.1893 107.162 87.464C107.205 87.3787 107.567 86.824 108.25 85.8C108.975 84.776 109.893 83.4747 111.002 81.896C112.111 80.2747 113.349 78.4613 114.714 76.456C116.122 74.4507 117.551 72.4027 119.002 70.312C122.373 65.448 126.213 59.9227 130.522 53.736C131.162 52.712 132.015 51.752 133.082 50.856C134.191 49.9173 135.429 49.448 136.794 49.448H147.546Z" fill="black"/>
<path d="M68.544 92.584C69.6107 92.584 70.5067 92.968 71.232 93.736L78.848 101.864C75.0933 106.643 70.4213 110.269 64.832 112.744C59.2853 115.219 52.672 116.456 44.992 116.456C38.0373 116.456 31.7867 115.283 26.24 112.936C20.6933 110.547 15.9787 107.24 12.096 103.016C8.21333 98.792 5.22667 93.7786 3.136 87.976C1.04533 82.1733 0 75.8373 0 68.9679C0 64.3599 0.490667 59.9866 1.472 55.848C2.496 51.6666 3.968 47.8266 5.888 44.3279C7.808 40.8293 10.112 37.6719 12.8 34.8559C15.5307 32.04 18.6027 29.6506 22.016 27.688C25.4293 25.6826 29.1413 24.1679 33.152 23.144C37.2053 22.0773 41.5147 21.5439 46.08 21.5439C49.4933 21.5439 52.7147 21.8426 55.744 22.4399C58.816 23.0373 61.6747 23.8693 64.32 24.936C66.9653 26.0026 69.3973 27.3039 71.616 28.84C73.8773 30.3333 75.904 31.9759 77.696 33.768L71.232 42.6C70.848 43.1546 70.3573 43.6453 69.76 44.072C69.1627 44.4986 68.352 44.712 67.328 44.712C66.304 44.712 65.2587 44.3493 64.192 43.6239C63.168 42.8986 61.888 42.0879 60.352 41.1919C58.8587 40.2959 56.96 39.4853 54.656 38.7599C52.3947 38.0346 49.5147 37.672 46.016 37.672C42.1333 37.672 38.5707 38.376 35.328 39.784C32.0853 41.192 29.2907 43.2399 26.944 45.9279C24.64 48.5733 22.848 51.8373 21.568 55.7199C20.288 59.6026 19.648 64.0186 19.648 68.9679C19.648 73.9599 20.3307 78.4186 21.696 82.344C23.104 86.2266 25.0027 89.512 27.392 92.2C29.824 94.888 32.64 96.936 35.84 98.344C39.0827 99.7093 42.5387 100.392 46.208 100.392C48.384 100.392 50.3467 100.285 52.096 100.072C53.888 99.8586 55.5307 99.496 57.024 98.984C58.56 98.472 59.9893 97.8106 61.312 97C62.6773 96.1893 64.0427 95.1653 65.408 93.928C65.8773 93.544 66.368 93.2239 66.88 92.9679C67.392 92.7119 67.9467 92.584 68.544 92.584Z" fill="black"/>
<rect x="531.342" width="313" height="154" rx="30" fill="#39A0FF"/>
<path d="M810.321 95.04C811.388 95.04 812.284 95.424 813.009 96.192L820.625 104.32C816.87 109.099 812.198 112.725 806.609 115.2C801.062 117.675 794.449 118.912 786.769 118.912C779.814 118.912 773.564 117.739 768.017 115.392C762.47 113.003 757.756 109.696 753.873 105.472C749.99 101.248 747.004 96.2347 744.913 90.432C742.822 84.6293 741.777 78.2933 741.777 71.424C741.777 66.816 742.268 62.4427 743.249 58.304C744.273 54.1227 745.745 50.2827 747.665 46.784C749.585 43.2853 751.889 40.128 754.577 37.312C757.308 34.496 760.38 32.1067 763.793 30.144C767.206 28.1387 770.918 26.624 774.929 25.6C778.982 24.5333 783.292 24 787.857 24C791.27 24 794.492 24.2987 797.521 24.896C800.593 25.4933 803.452 26.3253 806.097 27.392C808.742 28.4587 811.174 29.76 813.393 31.296C815.654 32.7893 817.681 34.432 819.473 36.224L813.009 45.056C812.625 45.6107 812.134 46.1013 811.537 46.528C810.94 46.9547 810.129 47.168 809.105 47.168C808.081 47.168 807.036 46.8053 805.969 46.08C804.945 45.3547 803.665 44.544 802.129 43.648C800.636 42.752 798.737 41.9413 796.433 41.216C794.172 40.4907 791.292 40.128 787.793 40.128C783.91 40.128 780.348 40.832 777.105 42.24C773.862 43.648 771.068 45.696 768.721 48.384C766.417 51.0293 764.625 54.2933 763.345 58.176C762.065 62.0587 761.425 66.4747 761.425 71.424C761.425 76.416 762.108 80.8747 763.473 84.8C764.881 88.6827 766.78 91.968 769.169 94.656C771.601 97.344 774.417 99.392 777.617 100.8C780.86 102.165 784.316 102.848 787.985 102.848C790.161 102.848 792.124 102.741 793.873 102.528C795.665 102.315 797.308 101.952 798.801 101.44C800.337 100.928 801.766 100.267 803.089 99.456C804.454 98.6453 805.82 97.6213 807.185 96.384C807.654 96 808.145 95.68 808.657 95.424C809.169 95.168 809.724 95.04 810.321 95.04Z" fill="white"/>
<path d="M703.585 103.36V39.5519H680.481C679.969 48.1706 679.286 55.8506 678.433 62.5919C677.58 69.3333 676.598 75.2853 675.489 80.4479C674.38 85.6106 673.142 90.0693 671.777 93.8239C670.412 97.5786 668.94 100.757 667.361 103.36H703.585ZM737.057 103.36V134.4C737.057 136.021 736.481 137.323 735.329 138.304C734.22 139.285 732.769 139.776 730.977 139.776H719.457V117.888H653.921V134.4C653.921 136.021 653.345 137.323 652.193 138.304C651.084 139.285 649.633 139.776 647.841 139.776H636.257V103.36H646.561C647.67 102.72 648.801 101.717 649.953 100.352C651.105 98.9439 652.214 96.9813 653.281 94.4639C654.39 91.9039 655.414 88.7039 656.353 84.8639C657.334 80.9813 658.209 76.2666 658.977 70.7199C659.788 65.1306 660.47 58.5813 661.025 51.0719C661.622 43.5626 662.049 34.8799 662.305 25.0239H722.913V103.36H737.057Z" fill="white"/>
<path d="M556.494 36.224C560.078 32.5973 564.515 29.6533 569.806 27.392C575.139 25.1307 581.241 24 588.11 24C592.633 24 596.921 24.5333 600.974 25.6C605.027 26.624 608.761 28.1387 612.174 30.144C615.587 32.1067 618.638 34.496 621.326 37.312C624.057 40.128 626.382 43.2853 628.302 46.784C630.222 50.2827 631.673 54.1227 632.654 58.304C633.678 62.4427 634.19 66.816 634.19 71.424C634.19 78.2933 633.145 84.6293 631.054 90.432C628.963 96.2347 625.977 101.248 622.094 105.472C618.211 109.696 613.497 113.003 607.95 115.392C602.403 117.739 596.153 118.912 589.198 118.912C581.518 118.912 574.883 117.675 569.294 115.2C563.747 112.725 559.097 109.099 555.342 104.32L562.958 96.192C563.385 95.7653 563.811 95.4667 564.238 95.296C564.707 95.1253 565.177 95.04 565.646 95.04C566.243 95.04 566.798 95.168 567.31 95.424C567.865 95.68 568.377 96 568.846 96.384C570.169 97.6213 571.513 98.6453 572.878 99.456C574.243 100.267 575.673 100.928 577.166 101.44C578.659 101.952 580.281 102.315 582.03 102.528C583.822 102.741 585.806 102.848 587.982 102.848C591.225 102.848 594.297 102.293 597.198 101.184C600.142 100.075 602.766 98.4747 605.07 96.384C607.374 94.2507 609.315 91.6267 610.894 88.512C612.473 85.3973 613.539 81.8347 614.094 77.824H572.686V63.808H613.966C613.369 60.0533 612.302 56.704 610.766 53.76C609.273 50.816 607.417 48.3413 605.198 46.336C602.979 44.288 600.419 42.752 597.518 41.728C594.659 40.6613 591.566 40.128 588.238 40.128C584.697 40.128 581.795 40.4907 579.534 41.216C577.273 41.9413 575.374 42.752 573.838 43.648C572.302 44.544 571.022 45.3547 569.998 46.08C568.974 46.8053 567.929 47.168 566.862 47.168C565.838 47.168 565.027 46.9547 564.43 46.528C563.875 46.1013 563.385 45.6107 562.958 45.056L556.494 36.224Z" fill="white"/>
</svg>
