<svg width="221" height="40" viewBox="0 0 221 40" fill="none" xmlns="http://www.w3.org/2000/svg">
<path d="M127.136 22.8176C126.017 22.873 125.086 22.9728 124.344 23.1168C123.601 23.2498 123.008 23.4271 122.565 23.6488C122.133 23.8704 121.822 24.1253 121.634 24.4134C121.457 24.6905 121.368 24.9953 121.368 25.3277C121.368 25.9927 121.551 26.4637 121.917 26.7407C122.293 27.0178 122.814 27.1563 123.479 27.1563C124.244 27.1563 124.903 27.0233 125.457 26.7573C126.023 26.4803 126.582 26.0536 127.136 25.4773V22.8176ZM117.794 15.2207C118.803 14.312 119.916 13.636 121.135 13.1927C122.354 12.7383 123.673 12.5111 125.092 12.5111C126.111 12.5111 127.02 12.6773 127.818 13.0098C128.627 13.3423 129.308 13.8077 129.863 14.4062C130.428 14.9935 130.86 15.6973 131.159 16.5173C131.458 17.3374 131.608 18.2351 131.608 19.2103V29.9823H129.514C129.081 29.9823 128.749 29.9213 128.516 29.7994C128.294 29.6775 128.112 29.4226 127.968 29.0347L127.602 27.9376C127.17 28.3144 126.749 28.6469 126.338 28.935C125.939 29.2231 125.524 29.467 125.092 29.6664C124.659 29.8548 124.194 29.9989 123.695 30.0986C123.208 30.1984 122.659 30.2483 122.05 30.2483C121.296 30.2483 120.609 30.1485 119.988 29.949C119.368 29.7496 118.83 29.4559 118.376 29.068C117.933 28.669 117.589 28.1759 117.345 27.5885C117.101 27.0012 116.979 26.3251 116.979 25.5605C116.979 24.9288 117.14 24.2971 117.462 23.6654C117.783 23.0337 118.332 22.463 119.107 21.9532C119.894 21.4323 120.936 21.0057 122.232 20.6732C123.54 20.3296 125.175 20.1357 127.136 20.0914V19.2103C127.136 18.1354 126.909 17.3485 126.455 16.8498C126 16.34 125.347 16.0851 124.493 16.0851C123.862 16.0851 123.335 16.1627 122.914 16.3179C122.493 16.4619 122.122 16.6226 121.8 16.7999C121.49 16.9662 121.196 17.1269 120.919 17.282C120.642 17.4261 120.321 17.4981 119.955 17.4981C119.634 17.4981 119.362 17.4205 119.141 17.2654C118.93 17.0992 118.753 16.9052 118.609 16.6836L117.794 15.2207Z" fill="black"/>
<path d="M114.396 12.827V29.9824H110.257V21.0722C110.257 20.6733 110.279 20.2189 110.323 19.7091C110.368 19.1993 110.429 18.7172 110.506 18.2629L105.852 27.0234C105.575 27.5443 105.148 27.8047 104.572 27.8047H104.073C103.508 27.8047 103.076 27.5443 102.776 27.0234L98.072 18.2296C98.1606 18.684 98.2271 19.1716 98.2714 19.6925C98.3268 20.2023 98.3546 20.6622 98.3546 21.0722V29.9824H94.2153V12.827H98.0387C98.349 12.827 98.6593 12.8935 98.9696 13.0265C99.2799 13.1595 99.5459 13.4255 99.7675 13.8244L103.292 20.4239C103.48 20.7785 103.657 21.1609 103.824 21.5709C104.001 21.9699 104.167 22.3799 104.322 22.8011C104.466 22.3799 104.622 21.9699 104.788 21.5709C104.965 21.1609 105.148 20.7785 105.336 20.4239L108.844 13.8244C109.066 13.4033 109.332 13.1318 109.642 13.0099C109.952 12.888 110.262 12.827 110.573 12.827H114.396Z" fill="black"/>
<path d="M87.2625 19.3932C87.2625 18.9167 87.196 18.4623 87.0631 18.0301C86.9412 17.5979 86.7417 17.2156 86.4646 16.8831C86.1876 16.5506 85.8385 16.2902 85.4173 16.1018C84.9962 15.9023 84.492 15.8026 83.9046 15.8026C82.8075 15.8026 81.9486 16.1129 81.328 16.7335C80.7074 17.3541 80.3029 18.2407 80.1145 19.3932H87.2625ZM80.048 22.1195C80.1921 23.7264 80.6464 24.9011 81.4111 25.6436C82.1869 26.3861 83.1954 26.7574 84.4366 26.7574C85.0683 26.7574 85.6113 26.6853 86.0657 26.5413C86.5311 26.3861 86.9356 26.2199 87.2792 26.0426C87.6338 25.8542 87.9496 25.6879 88.2267 25.5439C88.5148 25.3887 88.7974 25.3111 89.0745 25.3111C89.4291 25.3111 89.7062 25.4441 89.9057 25.7101L91.2355 27.3724C90.7479 27.9376 90.2104 28.4086 89.6231 28.7854C89.0357 29.1511 88.4262 29.4448 87.7945 29.6665C87.1628 29.877 86.5256 30.0211 85.8828 30.0987C85.24 30.1873 84.6194 30.2317 84.021 30.2317C82.8241 30.2317 81.7048 30.0377 80.6631 29.6498C79.6324 29.2509 78.7292 28.6691 77.9534 27.9044C77.1888 27.1286 76.5848 26.17 76.1415 25.0285C75.6982 23.8871 75.4766 22.5627 75.4766 21.0556C75.4766 19.8919 75.665 18.7948 76.0418 17.7641C76.4296 16.7335 76.9837 15.8358 77.7041 15.0711C78.4244 14.3065 79.2999 13.7025 80.3306 13.2592C81.3612 12.8048 82.5249 12.5776 83.8215 12.5776C84.9186 12.5776 85.9271 12.755 86.847 13.1096C87.7779 13.4531 88.5758 13.9574 89.2407 14.6223C89.9167 15.2872 90.4376 16.1073 90.8033 17.0826C91.1801 18.0467 91.3685 19.1494 91.3685 20.3906C91.3685 20.7342 91.3519 21.0168 91.3186 21.2384C91.2854 21.4601 91.23 21.6374 91.1524 21.7704C91.0748 21.9034 90.9695 21.9976 90.8366 22.053C90.7036 22.0973 90.5318 22.1195 90.3212 22.1195H80.048Z" fill="black"/>
<path d="M74.5323 16.1849H68.6144V29.9823H64.0263V16.1849H58.1084V12.8436H74.5323V16.1849Z" fill="black"/>
<path d="M54.9291 16.667C54.7961 16.8443 54.6631 16.9828 54.5302 17.0826C54.3972 17.1712 54.2088 17.2156 53.965 17.2156C53.7433 17.2156 53.5272 17.1546 53.3167 17.0327C53.1172 16.8997 52.8844 16.7612 52.6185 16.6171C52.3525 16.462 52.0366 16.3234 51.6709 16.2015C51.3052 16.0685 50.8509 16.0021 50.3078 16.0021C49.6207 16.0021 49.0223 16.1295 48.5125 16.3844C48.0138 16.6282 47.5982 16.9828 47.2657 17.4483C46.9333 17.9137 46.6839 18.4789 46.5177 19.1439C46.3625 19.8088 46.285 20.5569 46.285 21.388C46.285 23.139 46.6341 24.48 47.3322 25.4109C48.0415 26.3418 49.0057 26.8072 50.2247 26.8072C50.6458 26.8072 51.006 26.774 51.3052 26.7075C51.6155 26.6299 51.8815 26.5357 52.1031 26.4249C52.3359 26.3141 52.5354 26.1922 52.7016 26.0592C52.8678 25.9262 53.023 25.8043 53.167 25.6935C53.3222 25.5827 53.4718 25.494 53.6159 25.4275C53.771 25.3499 53.9428 25.3111 54.1312 25.3111C54.4858 25.3111 54.7629 25.4441 54.9624 25.7101L56.2756 27.3724C55.788 27.9376 55.2671 28.4086 54.713 28.7854C54.1589 29.1511 53.5826 29.4448 52.9842 29.6665C52.3968 29.877 51.7984 30.0211 51.1889 30.0987C50.5793 30.1873 49.9753 30.2317 49.3769 30.2317C48.3241 30.2317 47.3267 30.0377 46.3847 29.6498C45.4427 29.2509 44.6171 28.6746 43.9078 27.921C43.1986 27.1674 42.6334 26.2421 42.2122 25.1449C41.8022 24.0478 41.5972 22.7955 41.5972 21.388C41.5972 20.1357 41.78 18.9721 42.1457 17.8971C42.5115 16.8221 43.0489 15.8912 43.7582 15.1044C44.4675 14.3176 45.343 13.7025 46.3847 13.2592C47.4375 12.8048 48.651 12.5776 50.0252 12.5776C51.3329 12.5776 52.4799 12.7882 53.4663 13.2093C54.4526 13.6305 55.3392 14.24 56.126 15.0379L54.9291 16.667Z" fill="black"/>
<path d="M38.6744 12.8436V29.9823H34.0864V20.5569C34.0864 20.302 34.0974 20.0138 34.1196 19.6925C34.1528 19.36 34.1972 19.0331 34.2526 18.7117C33.9977 19.2658 33.7373 19.7368 33.4713 20.1247C33.4491 20.1468 33.3494 20.2909 33.1721 20.5569C32.9947 20.8228 32.762 21.1664 32.4739 21.5875C32.1857 21.9976 31.8588 22.463 31.4931 22.9839C31.1385 23.5048 30.7728 24.0367 30.396 24.5797C29.5205 25.8431 28.5286 27.2783 27.4204 28.8852C27.3317 29.0182 27.2264 29.1512 27.1045 29.2841C26.9937 29.4061 26.8663 29.5224 26.7222 29.6332C26.5892 29.7441 26.4451 29.8327 26.29 29.8992C26.1348 29.9657 25.9686 29.999 25.7913 29.999H22.9819V12.8603H27.57V22.2857C27.57 22.5517 27.5534 22.8509 27.5201 23.1834C27.4869 23.5158 27.4425 23.8428 27.3871 24.1641C27.5201 23.876 27.6531 23.61 27.7861 23.3662C27.9191 23.1224 28.0521 22.9063 28.1851 22.7179C28.1961 22.6957 28.2903 22.5517 28.4676 22.2857C28.656 22.0197 28.8943 21.6817 29.1825 21.2717C29.4706 20.8506 29.792 20.3796 30.1466 19.8587C30.5123 19.3378 30.8836 18.8059 31.2604 18.2628C32.1359 16.9995 33.1333 15.5643 34.2526 13.9574C34.4188 13.6914 34.6405 13.4421 34.9175 13.2093C35.2057 12.9655 35.527 12.8436 35.8817 12.8436H38.6744Z" fill="black"/>
<path d="M18.1542 24.0478C18.4313 24.0478 18.664 24.1475 18.8524 24.347L20.8306 26.4582C19.8553 27.6994 18.6418 28.6414 17.1901 29.2841C15.7494 29.9269 14.0316 30.2483 12.0368 30.2483C10.2304 30.2483 8.60686 29.9435 7.16617 29.334C5.72548 28.7134 4.50089 27.8545 3.4924 26.7574C2.48392 25.6602 1.70816 24.3581 1.16513 22.8509C0.622101 21.3437 0.350586 19.698 0.350586 17.9137C0.350586 16.7169 0.478032 15.5809 0.732924 14.506C0.998898 13.4199 1.38124 12.4225 1.87994 11.5137C2.37864 10.605 2.97708 9.78492 3.67526 9.05349C4.38453 8.32206 5.18245 7.70145 6.06903 7.19167C6.95561 6.6708 7.91976 6.27738 8.9615 6.01141C10.0143 5.73435 11.1336 5.59583 12.3194 5.59583C13.206 5.59583 14.0427 5.6734 14.8295 5.82855C15.6275 5.98371 16.37 6.19981 17.0571 6.47687C17.7442 6.75392 18.3759 7.09193 18.9521 7.49089C19.5395 7.87877 20.0659 8.30544 20.5314 8.77089L18.8524 11.0649C18.7527 11.209 18.6252 11.3364 18.4701 11.4473C18.3149 11.5581 18.1044 11.6135 17.8384 11.6135C17.5724 11.6135 17.3009 11.5193 17.0238 11.3309C16.7579 11.1425 16.4254 10.9319 16.0264 10.6992C15.6386 10.4665 15.1454 10.2559 14.547 10.0675C13.9596 9.87912 13.2115 9.78492 12.3028 9.78492C11.2943 9.78492 10.3689 9.96777 9.52669 10.3335C8.68444 10.6992 7.95855 11.2312 7.34903 11.9293C6.75059 12.6164 6.28513 13.4642 5.95266 14.4727C5.6202 15.4812 5.45396 16.6282 5.45396 17.9137C5.45396 19.2104 5.63128 20.3685 5.98591 21.388C6.35163 22.3965 6.84479 23.2499 7.46539 23.948C8.09708 24.6462 8.82851 25.1782 9.65968 25.5439C10.5019 25.8985 11.3996 26.0758 12.3527 26.0758C12.9179 26.0758 13.4276 26.0481 13.882 25.9927C14.3475 25.9373 14.7741 25.8431 15.162 25.7101C15.561 25.5771 15.9322 25.4054 16.2758 25.1948C16.6304 24.9842 16.985 24.7183 17.3397 24.3969C17.4616 24.2971 17.589 24.214 17.722 24.1475C17.855 24.081 17.9991 24.0478 18.1542 24.0478Z" fill="black"/>
<path fill-rule="evenodd" clip-rule="evenodd" d="M147.193 0C142.889 0 139.4 3.48869 139.4 7.79221V32.2078C139.4 36.5113 142.889 40 147.193 40H212.907C217.21 40 220.699 36.5113 220.699 32.2078V7.79221C220.699 3.48869 217.21 0 212.907 0H147.193ZM212.561 24.9849C212.372 24.7855 212.14 24.6857 211.862 24.6857C211.707 24.6857 211.563 24.719 211.43 24.7855C211.297 24.8519 211.17 24.9351 211.048 25.0348C210.693 25.3562 210.339 25.6222 209.984 25.8327C209.64 26.0433 209.269 26.2151 208.87 26.3481C208.482 26.481 208.056 26.5752 207.59 26.6307C207.136 26.6861 206.626 26.7138 206.061 26.7138C205.108 26.7138 204.21 26.5365 203.368 26.1818C202.537 25.8161 201.805 25.2842 201.174 24.586C200.553 23.8878 200.06 23.0345 199.694 22.026C199.34 21.0064 199.162 19.8483 199.162 18.5517C199.162 17.2661 199.328 16.1191 199.661 15.1107C199.993 14.1022 200.459 13.2544 201.057 12.5673C201.667 11.8691 202.393 11.3371 203.235 10.9714C204.077 10.6057 205.003 10.4229 206.011 10.4229C206.92 10.4229 207.668 10.5171 208.255 10.7055C208.854 10.8939 209.347 11.1044 209.735 11.3371C210.134 11.5699 210.466 11.7804 210.732 11.9688C211.009 12.1572 211.281 12.2514 211.547 12.2514C211.813 12.2514 212.023 12.196 212.178 12.0852C212.333 11.9744 212.461 11.8469 212.561 11.7029L214.24 9.40883C213.774 8.94338 213.248 8.51671 212.66 8.12883C212.084 7.72987 211.452 7.39186 210.765 7.11481C210.078 6.83775 209.336 6.62165 208.538 6.4665C207.751 6.31134 206.914 6.23377 206.028 6.23377C204.842 6.23377 203.723 6.3723 202.67 6.64935C201.628 6.91533 200.664 7.30875 199.777 7.82961C198.891 8.3394 198.093 8.96 197.384 9.69143C196.685 10.4229 196.087 11.2429 195.588 12.1517C195.089 13.0604 194.707 14.0578 194.441 15.1439C194.186 16.2189 194.059 17.3548 194.059 18.5517C194.059 20.3359 194.33 21.9816 194.873 23.4888C195.416 24.996 196.192 26.2982 197.201 27.3953C198.209 28.4925 199.434 29.3513 200.874 29.972C202.315 30.5815 203.939 30.8862 205.745 30.8862C207.74 30.8862 209.458 30.5648 210.898 29.9221C212.35 29.2793 213.564 28.3373 214.539 27.0961L212.561 24.9849ZM184.139 26.8467V10.2732H178.138C178.005 12.5118 177.828 14.5066 177.606 16.2576C177.384 18.0086 177.129 19.5546 176.841 20.8956C176.553 22.2365 176.232 23.3946 175.877 24.3699C175.522 25.3451 175.14 26.1707 174.73 26.8467H184.139ZM192.833 26.8467V34.9091C192.833 35.3302 192.683 35.6682 192.384 35.9231C192.096 36.178 191.719 36.3054 191.254 36.3054H188.261V30.6202H171.239V34.9091C171.239 35.3302 171.09 35.6682 170.79 35.9231C170.502 36.178 170.125 36.3054 169.66 36.3054H166.651V26.8467H169.327C169.616 26.6805 169.909 26.4201 170.208 26.0654C170.508 25.6997 170.796 25.1899 171.073 24.5361C171.361 23.8712 171.627 23.04 171.871 22.0426C172.126 21.0341 172.353 19.8095 172.552 18.3688C172.763 16.917 172.94 15.2159 173.084 13.2654C173.239 11.315 173.35 9.05972 173.417 6.49972H189.159V26.8467H192.833ZM149.391 7.11481C148.017 7.70217 146.864 8.46684 145.933 9.40883L147.612 11.7029C147.723 11.8469 147.851 11.9744 147.995 12.0852C148.15 12.196 148.36 12.2514 148.626 12.2514C148.903 12.2514 149.175 12.1572 149.441 11.9688C149.707 11.7804 150.039 11.5699 150.438 11.3371C150.837 11.1044 151.33 10.8939 151.918 10.7055C152.505 10.5171 153.259 10.4229 154.179 10.4229C155.043 10.4229 155.846 10.5614 156.589 10.8384C157.343 11.1044 158.007 11.5034 158.584 12.0353C159.16 12.5562 159.642 13.199 160.03 13.9636C160.429 14.7283 160.706 15.5983 160.861 16.5735H150.139V20.214H160.894C160.75 21.2558 160.473 22.1811 160.063 22.9901C159.653 23.7991 159.149 24.4807 158.551 25.0348C157.952 25.5778 157.271 25.9934 156.506 26.2816C155.752 26.5697 154.954 26.7138 154.112 26.7138C153.547 26.7138 153.032 26.6861 152.566 26.6307C152.112 26.5752 151.691 26.481 151.303 26.3481C150.915 26.2151 150.544 26.0433 150.189 25.8327C149.834 25.6222 149.485 25.3562 149.142 25.0348C149.02 24.9351 148.887 24.8519 148.743 24.7855C148.61 24.719 148.466 24.6857 148.311 24.6857C148.189 24.6857 148.067 24.7079 147.945 24.7522C147.834 24.7965 147.723 24.8741 147.612 24.9849L145.634 27.0961C146.609 28.3373 147.817 29.2793 149.258 29.9221C150.71 30.5648 152.433 30.8862 154.428 30.8862C156.234 30.8862 157.858 30.5815 159.299 29.972C160.739 29.3513 161.964 28.4925 162.972 27.3953C163.981 26.2982 164.757 24.996 165.3 23.4888C165.843 21.9816 166.114 20.3359 166.114 18.5517C166.114 17.3548 165.981 16.2189 165.715 15.1439C165.46 14.0578 165.083 13.0604 164.585 12.1517C164.086 11.2429 163.482 10.4229 162.773 9.69143C162.075 8.96 161.282 8.3394 160.396 7.82961C159.509 7.30875 158.539 6.91533 157.487 6.64935C156.434 6.3723 155.32 6.23377 154.145 6.23377C152.361 6.23377 150.776 6.52745 149.391 7.11481Z" fill="black"/>
</svg>
