<svg width="67" height="65" viewBox="0 0 67 65" fill="none" xmlns="http://www.w3.org/2000/svg">
<path d="M0 31.4085C0.162034 30.1511 0.277078 28.884 0.516888 27.6412C2.68328 16.4543 8.79034 8.1015 19.12 3.33284C30.8205 -2.06613 42.2066 -0.862217 52.6902 6.62861C59.8732 11.7618 64.1654 18.9059 65.7161 27.6136C67.0124 34.9132 65.951 41.9147 62.6002 48.516C59.6933 54.2471 55.4529 58.7987 49.8805 62.0199C48.009 63.1007 45.9706 63.9027 43.9825 64.7745C43.5208 64.9423 43.0242 64.9908 42.5388 64.9154C41.9036 64.8393 41.5131 64.3921 41.4126 63.7504C41.3645 63.4091 41.344 63.0645 41.3511 62.7199C41.3592 59.9653 41.3851 57.1994 41.3835 54.44C41.3835 52.6074 41.1177 50.8282 40.1083 49.2419C39.8587 48.8498 39.5509 48.4949 39.2398 48.0834C40.4615 47.8646 41.6541 47.7042 42.8207 47.4352C46.1084 46.6737 49.0396 45.2786 51.1736 42.5353C52.7226 40.5439 53.5311 38.243 53.9281 35.7915C54.2809 33.771 54.3388 31.7101 54.0999 29.6731C53.8132 27.3269 52.8448 25.1163 51.3145 23.3149C50.9386 22.8693 50.9208 22.5209 51.0747 21.9975C51.8476 19.3499 51.5462 16.7509 50.5805 14.2199C50.5108 14.0384 50.0863 13.8586 49.8611 13.8958C48.8241 14.0579 47.732 14.134 46.7824 14.544C45.1475 15.2407 43.5952 16.1368 42.03 16.9907C41.6103 17.2208 41.2652 17.3391 40.771 17.2143C35.7366 15.9269 30.4592 15.9269 25.4247 17.2143C25.233 17.2701 25.0311 17.2811 24.8344 17.2466C24.6378 17.212 24.4517 17.1328 24.2905 17.015C22.4271 15.7965 20.5022 14.6963 18.3196 14.1583C17.6358 13.9963 16.918 13.9525 16.2131 13.8845C15.889 13.8521 15.693 14.0287 15.5747 14.3706C14.6754 17.0069 14.4113 19.6561 15.2668 22.3605C15.2951 22.4758 15.2982 22.5959 15.2758 22.7125C15.2535 22.8291 15.2062 22.9395 15.1372 23.0362C12.3146 26.2817 11.6875 30.1073 12.1185 34.2295C12.3308 36.2549 12.7423 38.2236 13.5979 40.0854C15.0303 43.2029 17.417 45.2867 20.5653 46.5667C22.4174 47.3153 24.3505 47.7123 26.3208 47.9764C26.5298 48.004 26.7372 48.0526 26.8604 48.0753C26.3872 48.9454 25.906 49.7928 25.4653 50.6678C25.3031 50.9723 25.2065 51.3073 25.1817 51.6513C25.1477 52.4486 24.6567 52.7208 23.9891 52.9266C21.651 53.646 19.3631 53.7367 17.3684 52.1164C16.5275 51.4196 15.8793 50.4928 15.2474 49.6081C14.2963 48.2859 13.1944 47.1517 11.6032 46.6656C10.9655 46.4914 10.3049 46.4155 9.64426 46.4403C9.48144 46.4519 9.32353 46.5011 9.18294 46.584C9.04236 46.667 8.92294 46.7814 8.83409 46.9183C8.75469 47.0804 9.03987 47.4838 9.23917 47.7123C9.47185 47.9674 9.74171 48.1859 10.0396 48.3604C11.5806 49.3229 12.5722 50.7407 13.3062 52.3513C13.862 53.5698 14.3643 54.8061 15.3479 55.7638C17.1869 57.5461 19.4473 58.1408 21.9281 58.0533C22.8711 58.0193 23.8109 57.8637 24.8042 57.7584C24.8302 57.9064 24.848 58.0557 24.8576 58.2056C24.8787 59.779 24.9014 61.3539 24.9111 62.9273C24.9208 64.674 23.887 65.3853 22.244 64.7972C14.9233 62.1679 9.18678 57.565 5.03439 50.9886C2.41158 46.841 0.775199 42.1469 0.251153 37.2676C0.170136 36.5222 0.0891187 35.7785 0 35.0348V31.4085Z" fill="#39A0FF"/>
</svg>
